Coordinates
version=1
nRows=29
nColumns=22
inDegrees=yes

Units are S.I. units (second, meters, Newtons, ...)
If the header above contains a line with 'inDegrees', this indicates whether rotational values are in degrees (yes) or radians (no).

endheader
time	pelvis_tilt	pelvis_list	pelvis_rotation	pelvis_tx	pelvis_ty	pelvis_tz	hip_flexion_r	hip_adduction_r	hip_rotation_r	knee_angle_r	ankle_angle_r	subtalar_angle_r	hip_flexion_l	hip_adduction_l	hip_rotation_l	knee_angle_l	ankle_angle_l	subtalar_angle_l	lumbar_extension	lumbar_bending	lumbar_rotation
      1.08000000	      0.99646858	      0.47284585	     -6.03201905	     -0.57303908	      0.92277780	      0.73819136	     19.58106547	     -2.96718610	      4.67550718	    -67.71347477	    -15.25676238	   -173.35164104	      9.12480849	      2.99452468	    -12.50974673	    -23.60904484	      9.89899775	     -6.23961050	     -8.32654682	     -4.65853744	      0.64038247
      1.09000000	      1.17673055	      0.45270623	     -5.32702010	     -0.56459829	      0.92362439	      0.73551797	     20.56827115	     -2.93950582	      4.05418002	    -66.82014953	    -13.72734145	   -172.94357834	      8.03670849	      3.31694998	    -11.95518308	    -22.92818117	     10.07758950	     -6.14867153	     -8.48836104	     -4.49975170	      0.13433527
      1.10000000	      1.36035213	      0.42699237	     -4.62008482	     -0.55616081	      0.92440234	      0.73290853	     21.45530914	     -2.94053297	      3.39056918	    -65.65116541	    -12.36299958	   -172.64121530	      6.94380557	      3.60275213	    -11.37619993	    -22.26023509	     10.25626635	     -6.03145333	     -8.65162189	     -4.34455523	     -0.33077648
      1.11000000	      1.51429241	      0.40950782	     -3.91090923	     -0.54773174	      0.92501545	      0.73037173	     22.28335652	     -2.97732974	      2.69104690	    -64.23375587	    -11.12054528	   -172.50368615	      5.90847397	      3.85305044	    -10.83065952	    -21.65500896	     10.47323544	     -5.91937841	     -8.77744046	     -4.20737758	     -0.76920174
      1.12000000	      1.74943076	      0.36504919	     -3.19305627	     -0.53922571	      0.92571753	      0.72788971	     22.89361898	     -3.00269650	      1.97322676	    -62.52184637	    -10.17144486	   -172.58685177	      4.74331581	      4.06829950	    -10.16448347	    -20.98493224	     10.62955896	     -5.74078120	     -8.99411859	     -4.04872415	     -1.20671161
      1.13000000	      1.94876921	      0.33085608	     -2.48036608	     -0.53069775	      0.92620947	      0.72549036	     23.44512775	     -3.04766280	      1.23791722	    -60.58156409	     -9.32352071	   -172.79932595	      3.65072800	      4.24855107	     -9.54471990	    -20.39561325	     10.83821767	     -5.57716460	     -9.16285635	     -3.91099460	     -1.60111959
      1.14000000	      2.14988141	      0.29942531	     -1.77461766	     -0.52210562	      0.92656008	      0.72314266	     23.88489286	     -3.10031874	      0.49032875	    -58.40513518	     -8.62020708	   -173.09775686	      2.56842884	      4.40216657	     -8.92170645	    -19.84663521	     11.06857606	     -5.41589104	     -9.32539555	     -3.78093803	     -1.94894458
      1.15000000	      2.33903035	      0.28312732	     -1.07543978	     -0.51344646	      0.92672597	      0.72085919	     24.22819285	     -3.15583596	     -0.24447430	    -56.00654917	     -8.02483144	   -173.40922760	      1.51204563	      4.54124270	     -8.30821845	    -19.33918613	     11.33785329	     -5.27028579	     -9.46577492	     -3.67513826	     -2.28696968
      1.16000000	      2.49884919	      0.28235345	     -0.35726025	     -0.50471032	      0.92668297	      0.71858092	     24.49081996	     -3.22556232	     -0.99920261	    -53.39522657	     -7.58885785	   -173.62853953	      0.49879519	      4.67438085	     -7.64839791	    -18.86891043	     11.62197600	     -5.18002348	     -9.56480287	     -3.58953414	     -2.62206042
      1.17000000	      2.64454301	      0.30991001	      0.35174472	     -0.49587514	      0.92643335	      0.71633077	     24.66099515	     -3.30708498	     -1.73554969	    -50.58659531	     -7.24629664	   -173.80072942	     -0.49011169	      4.81373462	     -6.99382089	    -18.43700885	     11.93599810	     -5.13251193	     -9.63826709	     -3.53785101	     -2.94780090
      1.18000000	      2.77866834	      0.36584750	      1.05906460	     -0.48692420	      0.92599065	      0.71411087	     24.73446610	     -3.39723005	     -2.45669318	    -47.59042563	     -6.99800396	   -173.92591338	     -1.46276092	      4.96071800	     -6.33516720	    -18.03548363	     12.27067417	     -5.13439120	     -9.69078986	     -3.52520819	     -3.25693289
      1.19000000	      2.90159772	      0.44992143	      1.76597240	     -0.47785680	      0.92536568	      0.71192654	     24.71570881	     -3.49542898	     -3.17090088	    -44.42167163	     -6.84547757	   -174.00676476	     -2.41254373	      5.11306417	     -5.67081316	    -17.68116126	     12.62508848	     -5.17891849	     -9.72257910	     -3.55306389	     -3.56797511
      1.20000000	      2.93935696	      0.55828176	      2.50823366	     -0.46873039	      0.92444126	      0.70970988	     24.70129322	     -3.61952663	     -3.91329604	    -41.12104702	     -6.80348773	   -174.01188882	     -3.23257685	      5.26865902	     -4.97149919	    -17.41998308	     13.02721132	     -5.23546385	     -9.66075723	     -3.61036807	     -3.92110627
      1.21000000	      3.08098555	      0.66597691	      3.18278487	     -0.45943394	      0.92355938	      0.70766255	     24.46875818	     -3.67839334	     -4.58653393	    -37.64740823	     -6.84369692	   -174.06221447	     -4.19181539	      5.39587275	     -4.32927695	    -17.13672381	     13.37048290	     -5.31718783	     -9.71239461	     -3.68481885	     -4.18381666
      1.22000000	      3.14527789	      0.78298149	      3.88744080	     -0.45009464	      0.92241174	      0.70561027	     24.24886063	     -3.74428073	     -5.29105702	    -34.08468109	     -6.97899493	   -174.06824504	     -5.02776338	      5.50980727	     -3.66236877	    -16.94985311	     13.75283129	     -5.36768084	     -9.68415209	     -3.77430238	     -4.48494482
      1.23000000	      3.16210016	      0.90192171	      4.60439342	     -0.44071555	      0.92105827	      0.70361423	     24.01825667	     -3.79744806	     -6.00538125	    -30.45669640	     -7.20138216	   -174.05665428	     -5.77947347	      5.60071831	     -2.99553773	    -16.84435187	     14.15523621	     -5.38657430	     -9.61261078	     -3.88009811	     -4.81383756
      1.24000000	      3.19027548	      1.02877057	      5.29440037	     -0.43124120	      0.91960500	      0.70173677	     23.71783012	     -3.81849542	     -6.67452005	    -26.78736651	     -7.41914591	   -174.05619470	     -6.55169417	      5.67518073	     -2.36448593	    -16.74330298	     14.53490962	     -5.37161948	     -9.56052626	     -4.01032290	     -5.09590518
      1.25000000	      3.21601659	      1.16873903	      5.96268960	     -0.42171192	      0.91802836	      0.69995555	     23.38222528	     -3.82028724	     -7.30078360	    -23.13255175	     -7.59572247	   -174.06738023	     -7.31387069	      5.74143602	     -1.77090234	    -16.67532856	     14.89773234	     -5.31628920	     -9.51699675	     -4.16695968	     -5.34405115
      1.26000000	      3.22189468	      1.32071338	      6.60321338	     -0.41210509	      0.91631689	      0.69829448	     23.04811143	     -3.80109466	     -7.86842226	    -19.55672448	     -7.72256817	   -174.08021059	     -8.06927396	      5.80061446	     -1.22585662	    -16.59604767	     15.24678023	     -5.22287426	     -9.45804838	     -4.35445388	     -5.56246269
      1.27000000	      3.18978976	      1.49465454	      7.24152367	     -0.40251702	      0.91444412	      0.69672016	     22.76067071	     -3.78921791	     -8.37343282	    -16.13734400	     -7.82195368	   -174.04893355	     -8.75254839	      5.86183372	     -0.74030564	    -16.59153937	     15.59548057	     -5.11643540	     -9.38119380	     -4.58306759	     -5.77517297
      1.28000000	      3.15085677	      1.68042080	      7.85073317	     -0.39286328	      0.91248081	      0.69526757	     22.49870543	     -3.76430019	     -8.77191524	    -12.94789111	     -7.86692024	   -173.92305336	     -9.44232070	      5.91789414	     -0.31396948	    -16.57638220	     15.92831510	     -4.99019088	     -9.30806037	     -4.83955314	     -5.94980740
      1.29000000	      3.10364419	      1.87768816	      8.44587701	     -0.38317498	      0.91043899	      0.69389197	     22.28348270	     -3.74611767	     -9.03639080	    -10.07687521	     -7.86860927	   -173.64682664	    -10.12171301	      5.96962161	      0.05779976	    -16.57821723	     16.24848137	     -4.85826963	     -9.24271423	     -5.11807701	     -6.09648884
      1.30000000	      3.07986711	      2.08373562	      9.02451481	     -0.37340614	      0.90838572	      0.69256877	     22.08879631	     -3.74170853	     -9.13499635	     -7.60096152	     -7.80370229	   -173.13225513	    -10.84007404	      6.01077030	      0.36147047	    -16.56945048	     16.55401006	     -4.71478887	     -9.21601772	     -5.40272953	     -6.24970261
      1.31000000	      3.05673794	      2.29428063	      9.60656746	     -0.36361432	      0.90631897	      0.69125487	     21.95770866	     -3.77738778	     -9.03934783	     -5.61043596	     -7.69884868	   -172.42796893	    -11.54492810	      6.04280109	      0.65668708	    -16.59773053	     16.83367524	     -4.58904409	     -9.21112881	     -5.69105142	     -6.38038386
      1.32000000	      3.04847287	      2.50251328	     10.18608807	     -0.35376156	      0.90428723	      0.68992826	     21.88409016	     -3.85873503	     -8.73884193	     -4.17238017	     -7.54467228	   -171.58336634	    -12.25705713	      6.05775812	      0.93436027	    -16.65330222	     17.08616586	     -4.48636386	     -9.23444352	     -5.96660533	     -6.51789528
      1.33000000	      3.05468894	      2.69831491	     10.77270886	     -0.34387430	      0.90232403	      0.68854472	     21.87348379	     -3.99202198	     -8.23188665	     -3.32636619	     -7.37659984	   -170.74898577	    -12.96405574	      6.04756155	      1.24430278	    -16.75252233	     17.30743089	     -4.41663113	     -9.29025620	     -6.21118213	     -6.65930458
      1.34000000	      3.07679437	      2.87006273	     11.36304288	     -0.33391403	      0.90045491	      0.68708715	     21.92577418	     -4.16450628	     -7.53366843	     -3.08544243	     -7.22070967	   -170.07019283	    -13.66275813	      6.00012255	      1.57387341	    -16.90211044	     17.49994268	     -4.38478615	     -9.36640234	     -6.40601743	     -6.81352414
      1.35000000	      3.11915160	      3.00094897	     11.95807838	     -0.32387324	      0.89870410	      0.68556442	     22.03259205	     -4.34749809	     -6.67092836	     -3.42108525	     -7.11921996	   -169.63773225	    -14.33923068	      5.89567628	      1.93549391	    -17.13072992	     17.67065906	     -4.39121504	     -9.46477649	     -6.53208499	     -6.96757325
      1.36000000	      3.17110206	      3.07585380	     12.55492081	     -0.31369482	      0.89707073	      0.68397609	     22.19479382	     -4.50759502	     -5.69502694	     -4.27121968	     -7.08576481	   -169.57650255	    -14.98603752	      5.72325596	      2.34939793	    -17.42674960	     17.79715241	     -4.40131564	     -9.55629008	     -6.57160292	     -7.10350760
